HIERARCHY
ROOT Hips
{
	OFFSET 55.310501 45.591206 43.872097
	CHANNELS 6 Xposition Yposition Zposition Zrotation Xrotation Yrotation
	JOINT Chest
	{
		OFFSET -0.153500 1.163101 7.852402
		CHANNELS 6 Xposition Yposition Zposition Zrotation Xrotation Yrotation
		JOINT Chest2
		{
			OFFSET 0.000000 0.000000 3.343300
			CHANNELS 6 Xposition Yposition Zposition Zrotation Xrotation Yrotation
			JOINT Neck
			{
				OFFSET 0.000000 0.000000 7.785500
				CHANNELS 6 Xposition Yposition Zposition Zrotation Xrotation Yrotation
				JOINT Head
				{
					OFFSET 0.000000 0.000000 2.173901
					CHANNELS 6 Xposition Yposition Zposition Zrotation Xrotation Yrotation
					End Site
					{
						OFFSET 0.000000 0.000000 10.528198
					}
				}
			}
			JOINT LeftCollar
			{
				OFFSET 2.676300 -1.652401 4.938301
				CHANNELS 6 Xposition Yposition Zposition Zrotation Xrotation Yrotation
				JOINT LeftShoulder
				{
					OFFSET 4.299000 0.000000 0.000000
					CHANNELS 6 Xposition Yposition Zposition Zrotation Xrotation Yrotation
					JOINT LeftElbow
					{
						OFFSET 0.000000 0.000000 -10.245102
						CHANNELS 6 Xposition Yposition Zposition Zrotation Xrotation Yrotation
						JOINT LeftWrist
						{
							OFFSET 0.000000 0.000000 -12.703300
							CHANNELS 6 Xposition Yposition Zposition Zrotation Xrotation Yrotation
							End Site
							{
								OFFSET 0.000000 0.000000 -2.173901
							}
						}
					}
				}
			}
			JOINT RightCollar
			{
				OFFSET -2.534599 -1.686401 5.195000
				CHANNELS 6 Xposition Yposition Zposition Zrotation Xrotation Yrotation
				JOINT RightShoulder
				{
					OFFSET -4.144100 0.000000 0.000000
					CHANNELS 6 Xposition Yposition Zposition Zrotation Xrotation Yrotation
					JOINT RightElbow
					{
						OFFSET 0.000000 0.000000 -10.116501
						CHANNELS 6 Xposition Yposition Zposition Zrotation Xrotation Yrotation
						JOINT RightWrist
						{
							OFFSET 0.000000 0.000000 -12.937801
							CHANNELS 6 Xposition Yposition Zposition Zrotation Xrotation Yrotation
							End Site
							{
								OFFSET 0.000000 0.000000 -2.173901
							}
						}
					}
				}
			}
		}
	}
	JOINT LeftHip
	{
		OFFSET 2.175598 0.064499 -2.662899
		CHANNELS 6 Xposition Yposition Zposition Zrotation Xrotation Yrotation
		JOINT LeftKnee
		{
			OFFSET 0.000000 -0.000004 -18.585800
			CHANNELS 6 Xposition Yposition Zposition Zrotation Xrotation Yrotation
			JOINT LeftAnkle
			{
				OFFSET 0.000000 0.000000 -18.979500
				CHANNELS 6 Xposition Yposition Zposition Zrotation Xrotation Yrotation
				End Site
				{
					OFFSET 0.000000 -9.264000 0.000000
				}
			}
		}
	}
	JOINT RightHip
	{
		OFFSET -2.092400 -0.058102 -2.581200
		CHANNELS 6 Xposition Yposition Zposition Zrotation Xrotation Yrotation
		JOINT RightKnee
		{
			OFFSET 0.000000 -0.000004 -18.665001
			CHANNELS 6 Xposition Yposition Zposition Zrotation Xrotation Yrotation
			JOINT RightAnkle
			{
				OFFSET 0.000000 0.000000 -18.566601
				CHANNELS 6 Xposition Yposition Zposition Zrotation Xrotation Yrotation
				End Site
				{
					OFFSET 0.000000 -8.497601 0.000000
				}
			}
		}
	}
}
MOTION
Frames: 8
Frame Time: 0.041667
32.146103 33.303707 43.351894 387.667467 -0.729247 3.986145 -0.153503 1.163105 7.852405 -25.834451 13.251426 -15.019379 0.000000 0.000001 3.343295 14.399758 -7.555938 0.801824 -0.000002 -0.000001 7.785492 -48.204992 7.620484 -5.865431 -0.000005 -0.000006 2.173905 -6.427625 -1.750368 -9.694703 2.676298 -1.652403 4.938286 12.233545 -11.371415 -25.044290 4.298999 0.000001 -0.000001 -13.476496 -17.920466 -106.705040 -0.000003 -0.000004 -10.245101 235.173249 185.198257 181.457977 0.000001 -0.000004 -12.703329 260.018444 175.674501 169.736976 -2.534595 -1.686396 5.194998 -15.299810 -3.934540 -3.271776 -4.144100 -0.000001 -0.000002 -13.662519 -0.587223 95.062996 0.000000 0.000013 -10.116503 -82.403200 -33.088848 -122.139219 0.000002 0.000006 -12.937809 7.051938 -18.995282 6.198826 2.175595 0.064491 -2.662898 -343.149496 -27.568887 -17.895094 -0.000003 -0.000013 -18.585800 86.039968 -225.824427 -51.804246 -0.000004 -0.000002 -18.979504 355.517056 5.459682 -7.253957 -2.092399 -0.058106 -2.581204 -24.157939 -11.613217 0.331184 0.000004 -0.000007 -18.665003 -727.919488 44.750412 -8.483266 0.000007 -0.000006 -18.566603 732.249172 6.646736 13.205227
32.190403 33.303303 43.359192 387.730387 -0.903851 4.022111 -0.153503 1.163108 7.852409 -25.851112 13.580178 -15.176573 0.000003 0.000012 3.343297 14.318654 -7.633526 0.797708 -0.000010 0.000002 7.785505 -48.203807 7.438885 -5.909183 -0.000004 0.000002 2.173912 -6.395620 -1.784282 -9.679505 2.676290 -1.652391 4.938301 12.453913 -11.626569 -25.076111 4.298994 0.000004 0.000000 -13.632904 -17.970458 -106.531171 -0.000007 0.000004 -10.245112 235.161665 185.222122 181.501185 0.000001 0.000005 -12.703296 260.027323 175.825858 169.688837 -2.534600 -1.686398 5.195006 -15.403023 -4.082985 -3.233877 -4.144101 0.000002 0.000004 -13.565887 -0.534108 95.052765 0.000004 0.000004 -10.116499 -82.423772 -33.219554 -122.240060 0.000006 0.000011 -12.937805 6.980816 -18.995335 5.972551 2.175593 0.064496 -2.662891 -343.480214 -27.219788 -18.042146 0.000004 -0.000004 -18.585804 86.295363 -225.845614 -51.830378 -0.000003 -0.000001 -18.979506 355.689122 5.565062 -7.580607 -2.092396 -0.058105 -2.581195 -24.176366 -11.498600 0.490204 0.000003 -0.000002 -18.664999 -728.757962 44.926993 -7.990959 0.000002 0.000001 -18.566603 732.780014 6.601458 13.228153
32.233803 33.303398 43.364994 387.768035 -1.038662 4.053183 -0.153492 1.163114 7.852400 -25.847044 13.841883 -15.338742 0.000006 0.000002 3.343304 14.228626 -7.699721 0.791202 -0.000003 -0.000002 7.785497 -48.180499 7.280530 -5.991675 -0.000001 0.000002 2.173906 -6.383880 -1.796790 -9.701117 2.676299 -1.652403 4.938293 12.668845 -11.842923 -25.080321 4.299013 -0.000003 -0.000002 -13.726329 -17.949162 -106.364180 -0.000005 0.000000 -10.245100 235.447494 185.286448 181.580115 -0.000007 -0.000011 -12.703321 259.807501 175.950003 169.605618 -2.534592 -1.686401 5.194998 -15.423298 -4.189806 -3.229947 -4.144101 0.000006 -0.000005 -13.545466 -0.514769 95.049623 -0.000006 0.000010 -10.116503 -82.443757 -33.244184 -122.326680 0.000007 -0.000001 -12.937803 6.983324 -18.999544 5.792102 2.175600 0.064498 -2.662893 -343.802572 -26.911703 -18.182541 0.000002 -0.000003 -18.585808 86.510527 -225.877826 -51.810188 -0.000006 -0.000004 -18.979500 355.816000 5.653333 -7.836223 -2.092391 -0.058103 -2.581200 -24.180179 -11.398842 0.619960 0.000006 -0.000005 -18.665010 -729.448849 45.036700 -7.570574 0.000000 0.000004 -18.566603 733.210316 6.566802 13.229653
32.279305 33.305698 43.369293 387.793498 -1.128134 4.049070 -0.153498 1.163101 7.852398 -25.841625 14.024803 -15.475353 0.000003 0.000000 3.343298 14.127919 -7.754520 0.781776 0.000006 -0.000004 7.785499 -48.142452 7.137344 -6.093421 -0.000007 0.000002 2.173906 -6.380802 -1.801003 -9.743078 2.676299 -1.652403 4.938303 12.901597 -12.050117 -25.069492 4.299000 -0.000002 -0.000006 -13.800499 -17.905483 -106.196205 0.000004 -0.000001 -10.245107 235.797036 185.393587 181.672746 -0.000001 -0.000004 -12.703318 259.526534 176.010437 169.477730 -2.534595 -1.686396 5.194997 -15.500336 -4.300756 -3.300301 -4.144105 0.000006 -0.000007 -13.409277 -0.483385 95.097571 0.000000 0.000008 -10.116499 -82.442917 -33.202017 -122.334070 -0.000002 -0.000001 -12.937803 7.081179 -19.018561 5.586041 2.175588 0.064497 -2.662903 -344.074468 -26.687359 -18.268003 0.000002 -0.000018 -18.585808 86.529768 -225.962588 -51.643088 -0.000003 -0.000009 -18.979502 355.823677 5.705238 -7.998016 -2.092397 -0.058107 -2.581203 -24.176189 -11.336584 0.753220 0.000005 -0.000009 -18.665001 -729.949802 45.089852 -7.254184 0.000005 -0.000001 -18.566607 733.517784 6.533594 13.208467
32.325806 33.309208 43.373997 387.792705 -1.182814 4.031288 -0.153490 1.163105 7.852405 -25.815733 14.150196 -15.604298 0.000003 0.000009 3.343307 14.017064 -7.800467 0.769971 -0.000004 0.000007 7.785501 -48.084043 7.022051 -6.225282 0.000003 -0.000008 2.173906 -6.395893 -1.772257 -9.735314 2.676294 -1.652400 4.938293 13.160116 -12.242003 -25.031542 4.299002 -0.000002 -0.000007 -13.878129 -17.825486 -106.049376 -0.000006 -0.000005 -10.245107 236.175811 185.507159 181.762713 -0.000002 -0.000004 -12.703326 259.207182 176.020969 169.364991 -2.534600 -1.686393 5.195005 -15.594222 -4.407897 -3.381515 -4.144108 0.000006 0.000003 -13.204211 -0.438403 95.142145 0.000000 0.000006 -10.116497 -82.328539 -33.053536 -122.233598 0.000003 0.000004 -12.937803 7.356352 -19.060141 5.366548 2.175600 0.064497 -2.662897 -344.271150 -26.520899 -18.313807 0.000000 -0.000011 -18.585804 86.514509 -225.978735 -51.507078 -0.000003 -0.000003 -18.979500 355.832912 5.661368 -7.890572 -2.092390 -0.058107 -2.581203 -24.156209 -11.278282 0.864734 -0.000000 -0.000009 -18.665005 -730.161047 45.061125 -7.103852 0.000008 -0.000006 -18.566605 733.640072 6.505393 13.158585
32.377007 33.315098 43.380291 387.787433 -1.263514 3.937986 -0.153500 1.163107 7.852399 -25.806488 14.257394 -15.637387 -0.000003 0.000006 3.343297 13.934902 -7.832233 0.761032 0.000004 0.000007 7.785513 -48.048701 6.935293 -6.360062 -0.000005 -0.000004 2.173903 -6.429856 -1.736769 -9.707653 2.676300 -1.652396 4.938310 13.358398 -12.359822 -24.964661 4.299003 0.000003 -0.000004 -13.956451 -17.757484 -105.996913 -0.000010 -0.000006 -10.245100 236.515791 185.521858 181.792219 0.000001 -0.000002 -12.703302 258.933373 175.966191 169.383801 -2.534595 -1.686394 5.195005 -15.757612 -4.525218 -3.548329 -4.144108 0.000001 0.000004 -12.911644 -0.400067 95.288755 0.000006 0.000004 -10.116501 -82.153153 -32.850898 -122.087528 -0.000004 0.000006 -12.937799 7.711499 -19.140027 5.129686 2.175590 0.064494 -2.662895 -344.442779 -26.302582 -18.284333 0.000003 -0.000003 -18.585808 86.535649 -226.025016 -51.400486 -0.000004 -0.000003 -18.979500 355.702264 5.597949 -7.709667 -2.092400 -0.058104 -2.581198 -24.119785 -11.206401 1.038464 0.000007 -0.000003 -18.665007 -730.252407 44.974081 -7.010321 0.000007 0.000005 -18.566605 733.682036 6.498628 13.086814
32.430595 33.323509 43.389095 387.791804 -1.343763 3.818861 -0.153507 1.163106 7.852404 -25.815359 14.345709 -15.636880 -0.000001 0.000010 3.343302 13.877823 -7.854233 0.752290 0.000005 -0.000002 7.785494 -48.017026 6.861364 -6.478819 -0.000003 0.000003 2.173900 -6.461965 -1.711646 -9.678837 2.676298 -1.652402 4.938289 13.510005 -12.442720 -24.872127 4.298997 0.000000 -0.000008 -14.045239 -17.685366 -106.008716 0.000002 -0.000005 -10.245100 236.706872 185.474374 181.765677 -0.000003 0.000004 -12.703319 258.801605 175.876306 169.516293 -2.534591 -1.686396 5.194992 -16.001433 -4.654304 -3.784573 -4.144103 -0.000003 0.000010 -12.475672 -0.356088 95.535748 0.000004 0.000005 -10.116505 -81.889494 -32.619648 -121.859208 0.000001 0.000008 -12.937804 8.094670 -19.251006 4.843641 2.175580 0.064497 -2.662897 -344.578809 -26.099720 -18.205325 0.000007 -0.000015 -18.585812 86.576568 -226.054181 -51.336173 -0.000004 -0.000004 -18.979500 355.507002 5.541662 -7.555280 -2.092416 -0.058113 -2.581202 -24.090233 -11.139468 1.229734 0.000005 -0.000007 -18.665005 -730.228310 44.861888 -6.974722 -0.000000 -0.000005 -18.566603 733.651437 6.504259 12.990560
32.485802 33.334007 43.399494 387.812158 -1.414194 3.691701 -0.153496 1.163105 7.852398 -25.844725 14.422353 -15.608961 0.000001 -0.000008 3.343300 13.826646 -7.886497 0.742476 -0.000005 -0.000005 7.785500 -48.002836 6.808832 -6.576282 -0.000006 -0.000007 2.173901 -6.457402 -1.700059 -9.644955 2.676296 -1.652408 4.938301 13.666643 -12.531912 -24.814152 4.299005 -0.000005 0.000000 -14.180646 -17.604580 -106.025013 -0.000005 -0.000004 -10.245111 236.701189 185.368957 181.684494 -0.000006 -0.000005 -12.703305 258.798436 175.825776 169.722155 -2.534600 -1.686402 5.195004 -16.243662 -4.770764 -3.997378 -4.144109 0.000002 0.000007 -12.434494 2.679227 95.644724 0.000010 0.000010 -10.116499 -84.705240 -32.601463 -121.760471 -0.000003 0.000007 -12.937810 8.384150 -19.366901 4.592304 2.175595 0.064499 -2.662899 -344.642630 -25.952207 -18.075781 0.000005 -0.000012 -18.585812 86.508410 -226.096993 -51.243064 0.000000 -0.000001 -18.979498 355.307943 5.490460 -7.440774 -2.092393 -0.058109 -2.581198 -24.073669 -11.109585 1.423184 -0.000000 -0.000003 -18.665001 -730.330872 44.792319 -6.854141 0.000001 -0.000002 -18.566605 733.703292 6.522819 12.896700
